<svg version="1.1" id="Layer_1" xmlns="http://www.w3.org/2000/svg" xmlns:xlink="http://www.w3.org/1999/xlink" x="0px" y="0px"
	 width="100%" viewBox="0 0 785 703" enable-background="new 0 0 785 703" xml:space="preserve">
<path fill="#6B0EAD" opacity="1.000000" stroke="none" 
	d="
M786.000000,2.000000 
	C786.000000,235.955521 786.000000,469.911041 786.000000,703.933289 
	C524.427551,703.933289 262.855103,703.933289 1.000000,703.933289 
	C1.000000,470.305389 1.000000,236.610641 1.184402,2.309893 
	C1.595555,1.483917 1.805954,1.249290 2.000000,1.000000 
	C262.694702,1.000000 523.389404,1.000000 784.693726,1.181484 
	C785.508240,1.605193 785.740417,1.817537 786.000000,2.000000 
M321.992859,571.507751 
	C324.727264,574.192261 327.482056,576.856262 330.192780,579.564514 
	C350.469482,599.822754 370.653748,620.174500 391.046539,640.315125 
	C400.090973,649.247681 408.686890,648.965576 417.640015,640.031494 
	C446.305328,611.427246 475.006958,582.859253 503.609192,554.192078 
	C528.789490,528.954590 553.308289,503.029144 579.101196,478.437500 
	C616.473816,442.805573 643.085144,401.079285 655.456543,350.727661 
	C658.213867,339.505188 660.073792,328.062286 662.566895,315.623077 
	C659.616882,316.247681 658.052368,316.510132 656.524658,316.912659 
	C630.594788,323.744690 604.721802,330.804382 578.706543,337.293335 
	C572.119141,338.936401 568.923584,342.182800 566.584229,348.523376 
	C553.347046,384.402313 530.384216,412.808929 498.258026,433.450256 
	C459.943329,458.067749 417.928955,465.625153 373.288605,457.979187 
	C329.657349,450.506073 294.287170,428.613831 267.136658,393.864746 
	C237.561005,356.011749 226.209290,312.713654 232.025131,265.256317 
	C236.154358,231.561691 249.246445,201.248703 271.644958,175.554016 
	C301.273743,141.565125 338.384430,120.910660 383.470062,115.560944 
	C413.656769,111.979080 443.044434,115.355423 471.051514,127.526772 
	C517.739441,147.816467 550.497131,181.518433 567.876709,229.645950 
	C569.255920,233.465195 571.189819,235.561111 575.279663,236.622131 
	C598.978638,242.770264 622.594666,249.237381 646.247559,255.563950 
	C651.132385,256.870514 656.054138,258.039124 662.283691,259.604156 
	C660.465088,249.443939 659.175659,240.435043 657.214417,231.574829 
	C644.354919,173.479218 614.666199,125.230888 568.870239,87.790535 
	C504.814331,35.421799 431.015381,18.253754 350.322906,34.771500 
	C275.188629,50.151501 218.386719,92.763870 179.643723,158.643600 
	C149.424164,210.029831 139.865128,265.956177 148.056030,324.834167 
	C155.517517,378.468750 177.930084,425.310333 215.401855,464.290802 
	C250.158463,500.446808 286.077820,535.485046 321.992859,571.507751 
M340.273468,246.772141 
	C329.364716,263.681091 325.929413,281.985687 329.681915,301.762177 
	C337.126099,340.994019 375.061157,369.605743 417.276062,362.093018 
	C433.619934,359.184418 449.600677,354.170197 465.686707,349.889038 
	C524.261292,334.299957 582.814270,318.629700 641.363098,302.944031 
	C647.145874,301.394806 652.975464,299.868530 658.541077,297.707611 
	C663.153809,295.916656 666.258667,292.306213 665.938293,286.932434 
	C665.623840,281.659027 662.414673,278.514435 657.579651,276.855072 
	C656.634521,276.530731 655.691406,276.190643 654.727173,275.933411 
	C642.825806,272.758575 630.915466,269.617279 619.017395,266.430054 
	C555.165588,249.325424 491.324310,232.181290 427.463531,215.110138 
	C392.107727,205.658875 360.397614,217.055038 340.273468,246.772141 
M206.521637,613.118774 
	C195.692841,617.153687 185.180008,621.790771 176.719864,629.967651 
	C167.598572,638.783447 167.407837,648.490417 177.045654,656.674072 
	C182.679291,661.457703 189.173080,665.588867 195.898010,668.660217 
	C217.385086,678.473694 240.193802,684.006287 263.393738,688.072693 
	C299.377991,694.379822 335.661987,697.782043 372.142700,698.888611 
	C429.360809,700.624207 486.379486,698.413025 542.964661,688.982361 
	C568.829651,684.671692 594.340149,678.953308 618.088623,667.466187 
	C624.574219,664.329163 630.760376,659.968140 636.012695,655.029602 
	C643.654175,647.844543 643.552490,638.357300 635.909912,631.277771 
	C630.855591,626.595764 624.924744,622.597839 618.819580,619.363342 
	C602.652100,610.797913 585.142212,605.641418 567.271851,602.421021 
	C543.558228,598.147644 519.631409,595.051636 495.779572,591.563782 
	C494.084808,591.315918 491.666321,591.369812 490.589722,592.367920 
	C486.499451,596.159912 482.822479,600.397827 478.751099,604.723877 
	C480.081970,604.949097 481.178986,605.234131 482.290100,605.308228 
	C507.229919,606.970093 532.081116,609.543152 556.382019,615.517761 
	C566.502991,618.006104 576.562195,621.451050 585.990112,625.868408 
	C596.894287,630.977478 596.901917,638.702271 586.315552,644.317810 
	C579.608704,647.875427 572.319702,650.631104 564.991760,652.665771 
	C544.573730,658.335327 523.649231,661.382263 502.544312,663.021606 
	C480.475830,664.735779 458.392914,667.301880 436.302399,667.452393 
	C402.682465,667.681458 369.033447,666.577026 335.429138,665.231018 
	C308.806885,664.164612 282.266418,661.294189 256.331024,654.947327 
	C245.268250,652.240112 234.277039,648.446716 223.993607,643.582031 
	C214.548004,639.113770 214.948730,631.463684 224.173965,626.488159 
	C229.563553,623.581299 235.291122,621.084473 241.136993,619.278076 
	C265.120972,611.866760 289.926239,608.977661 314.793121,606.527893 
	C319.634491,606.051025 324.459259,605.405762 329.291687,604.838135 
	C329.724335,604.151001 330.156982,603.463806 330.589630,602.776672 
	C327.490204,600.289001 324.096069,598.083130 321.373322,595.235291 
	C318.590454,592.324585 315.700409,590.934509 311.682098,591.500610 
	C304.928619,592.452087 298.142548,593.170410 291.374725,594.022827 
	C262.737762,597.629822 234.542435,603.212769 206.521637,613.118774 
M473.715607,198.743835 
	C484.356476,210.833206 497.800812,217.670868 513.611694,220.149399 
	C515.737061,220.482559 517.792175,221.252106 519.888245,221.786804 
	C523.170715,222.624191 526.460327,223.433594 530.265869,224.384521 
	C513.140381,183.318680 456.911255,137.006821 384.083954,147.335846 
	C310.241577,157.808838 259.600250,222.213257 262.365143,292.357178 
	C265.370544,368.603577 324.019653,424.535797 395.490479,429.032410 
	C432.967529,431.390350 466.598846,420.246155 495.576202,396.211456 
	C510.341675,383.964508 522.456726,369.433136 531.226624,350.575714 
	C527.655701,351.450714 525.444885,351.945068 523.260132,352.536072 
	C514.420288,354.927521 505.482147,357.027222 496.800568,359.900238 
	C492.719360,361.250824 488.516632,363.456238 485.426392,366.388641 
	C457.705078,392.694397 425.076324,404.601837 387.124054,398.844849 
	C319.988190,388.660980 277.841064,323.708649 295.215363,258.202545 
	C315.774719,180.687805 409.951416,148.989731 473.715607,198.743835 
z"/>
<path fill="#5A0C9A" opacity="1.000000" stroke="none" 
	d="
M1.500000,1.000000 
	C1.805954,1.249290 1.595555,1.483917 1.184402,1.851940 
	C1.000000,1.666667 1.000000,1.333333 1.500000,1.000000 
z"/>
<path fill="#5A0C9A" opacity="1.000000" stroke="none" 
	d="
M786.000000,1.500000 
	C785.740417,1.817537 785.508240,1.605193 785.151672,1.181484 
	C785.333313,1.000000 785.666687,1.000000 786.000000,1.500000 
z"/>
<path fill="#BF8B47" opacity="1.000000" stroke="none" 
	d="
M321.739014,571.261597 
	C286.077820,535.485046 250.158463,500.446808 215.401855,464.290802 
	C177.930084,425.310333 155.517517,378.468750 148.056030,324.834167 
	C139.865128,265.956177 149.424164,210.029831 179.643723,158.643600 
	C218.386719,92.763870 275.188629,50.151501 350.322906,34.771500 
	C431.015381,18.253754 504.814331,35.421799 568.870239,87.790535 
	C614.666199,125.230888 644.354919,173.479218 657.214417,231.574829 
	C659.175659,240.435043 660.465088,249.443939 662.283691,259.604156 
	C656.054138,258.039124 651.132385,256.870514 646.247559,255.563950 
	C622.594666,249.237381 598.978638,242.770264 575.279663,236.622131 
	C571.189819,235.561111 569.255920,233.465195 567.876709,229.645950 
	C550.497131,181.518433 517.739441,147.816467 471.051514,127.526772 
	C443.044434,115.355423 413.656769,111.979080 383.470062,115.560944 
	C338.384430,120.910660 301.273743,141.565125 271.644958,175.554016 
	C249.246445,201.248703 236.154358,231.561691 232.025131,265.256317 
	C226.209290,312.713654 237.561005,356.011749 267.136658,393.864746 
	C294.287170,428.613831 329.657349,450.506073 373.288605,457.979187 
	C417.928955,465.625153 459.943329,458.067749 498.258026,433.450256 
	C530.384216,412.808929 553.347046,384.402313 566.584229,348.523376 
	C568.923584,342.182800 572.119141,338.936401 578.706543,337.293335 
	C604.721802,330.804382 630.594788,323.744690 656.524658,316.912659 
	C658.052368,316.510132 659.616882,316.247681 662.566895,315.623077 
	C660.073792,328.062286 658.213867,339.505188 655.456543,350.727661 
	C643.085144,401.079285 616.473816,442.805573 579.101196,478.437500 
	C553.308289,503.029144 528.789490,528.954590 503.609192,554.192078 
	C475.006958,582.859253 446.305328,611.427246 417.640015,640.031494 
	C408.686890,648.965576 400.090973,649.247681 391.046539,640.315125 
	C370.653748,620.174500 350.469482,599.822754 330.192780,579.564514 
	C327.482056,576.856262 324.727264,574.192261 321.739014,571.261597 
z"/>
<path fill="#BF8B48" opacity="1.000000" stroke="none" 
	d="
M340.468994,246.468384 
	C360.397614,217.055038 392.107727,205.658875 427.463531,215.110138 
	C491.324310,232.181290 555.165588,249.325424 619.017395,266.430054 
	C630.915466,269.617279 642.825806,272.758575 654.727173,275.933411 
	C655.691406,276.190643 656.634521,276.530731 657.579651,276.855072 
	C662.414673,278.514435 665.623840,281.659027 665.938293,286.932434 
	C666.258667,292.306213 663.153809,295.916656 658.541077,297.707611 
	C652.975464,299.868530 647.145874,301.394806 641.363098,302.944031 
	C582.814270,318.629700 524.261292,334.299957 465.686707,349.889038 
	C449.600677,354.170197 433.619934,359.184418 417.276062,362.093018 
	C375.061157,369.605743 337.126099,340.994019 329.681915,301.762177 
	C325.929413,281.985687 329.364716,263.681091 340.468994,246.468384 
M371.733246,276.399841 
	C368.848358,284.264343 369.349762,292.081116 372.081024,299.860016 
	C377.466461,315.198303 395.264740,324.983337 411.091827,321.315094 
	C428.172363,317.356323 440.249695,301.519684 438.596130,285.249695 
	C436.857941,268.147278 425.243103,255.995453 408.368530,253.624680 
	C392.766937,251.432755 378.375732,260.138550 371.733246,276.399841 
z"/>
<path fill="#D36938" opacity="1.000000" stroke="none" 
	d="
M206.891815,612.996826 
	C234.542435,603.212769 262.737762,597.629822 291.374725,594.022827 
	C298.142548,593.170410 304.928619,592.452087 311.682098,591.500610 
	C315.700409,590.934509 318.590454,592.324585 321.373322,595.235291 
	C324.096069,598.083130 327.490204,600.289001 330.589630,602.776672 
	C330.156982,603.463806 329.724335,604.151001 329.291687,604.838135 
	C324.459259,605.405762 319.634491,606.051025 314.793121,606.527893 
	C289.926239,608.977661 265.120972,611.866760 241.136993,619.278076 
	C235.291122,621.084473 229.563553,623.581299 224.173965,626.488159 
	C214.948730,631.463684 214.548004,639.113770 223.993607,643.582031 
	C234.277039,648.446716 245.268250,652.240112 256.331024,654.947327 
	C282.266418,661.294189 308.806885,664.164612 335.429138,665.231018 
	C369.033447,666.577026 402.682465,667.681458 436.302399,667.452393 
	C458.392914,667.301880 480.475830,664.735779 502.544312,663.021606 
	C523.649231,661.382263 544.573730,658.335327 564.991760,652.665771 
	C572.319702,650.631104 579.608704,647.875427 586.315552,644.317810 
	C596.901917,638.702271 596.894287,630.977478 585.990112,625.868408 
	C576.562195,621.451050 566.502991,618.006104 556.382019,615.517761 
	C532.081116,609.543152 507.229919,606.970093 482.290100,605.308228 
	C481.178986,605.234131 480.081970,604.949097 478.751099,604.723877 
	C482.822479,600.397827 486.499451,596.159912 490.589722,592.367920 
	C491.666321,591.369812 494.084808,591.315918 495.779572,591.563782 
	C519.631409,595.051636 543.558228,598.147644 567.271851,602.421021 
	C585.142212,605.641418 602.652100,610.797913 618.819580,619.363342 
	C624.924744,622.597839 630.855591,626.595764 635.909912,631.277771 
	C643.552490,638.357300 643.654175,647.844543 636.012695,655.029602 
	C630.760376,659.968140 624.574219,664.329163 618.088623,667.466187 
	C594.340149,678.953308 568.829651,684.671692 542.964661,688.982361 
	C486.379486,698.413025 429.360809,700.624207 372.142700,698.888611 
	C335.661987,697.782043 299.377991,694.379822 263.393738,688.072693 
	C240.193802,684.006287 217.385086,678.473694 195.898010,668.660217 
	C189.173080,665.588867 182.679291,661.457703 177.045654,656.674072 
	C167.407837,648.490417 167.598572,638.783447 176.719864,629.967651 
	C185.180008,621.790771 195.692841,617.153687 206.891815,612.996826 
z"/>
<path fill="#D36938" opacity="1.000000" stroke="none" 
	d="
M473.432434,198.528625 
	C409.951416,148.989731 315.774719,180.687805 295.215363,258.202545 
	C277.841064,323.708649 319.988190,388.660980 387.124054,398.844849 
	C425.076324,404.601837 457.705078,392.694397 485.426392,366.388641 
	C488.516632,363.456238 492.719360,361.250824 496.800568,359.900238 
	C505.482147,357.027222 514.420288,354.927521 523.260132,352.536072 
	C525.444885,351.945068 527.655701,351.450714 531.226624,350.575714 
	C522.456726,369.433136 510.341675,383.964508 495.576202,396.211456 
	C466.598846,420.246155 432.967529,431.390350 395.490479,429.032410 
	C324.019653,424.535797 265.370544,368.603577 262.365143,292.357178 
	C259.600250,222.213257 310.241577,157.808838 384.083954,147.335846 
	C456.911255,137.006821 513.140381,183.318680 530.265869,224.384521 
	C526.460327,223.433594 523.170715,222.624191 519.888245,221.786804 
	C517.792175,221.252106 515.737061,220.482559 513.611694,220.149399 
	C497.800812,217.670868 484.356476,210.833206 473.432434,198.528625 
z"/>
<path fill="#6C10AC" opacity="1.000000" stroke="none" 
	d="
M371.851624,276.021698 
	C378.375732,260.138550 392.766937,251.432755 408.368530,253.624680 
	C425.243103,255.995453 436.857941,268.147278 438.596130,285.249695 
	C440.249695,301.519684 428.172363,317.356323 411.091827,321.315094 
	C395.264740,324.983337 377.466461,315.198303 372.081024,299.860016 
	C369.349762,292.081116 368.848358,284.264343 371.851624,276.021698 
z"/>
</svg>