<?xml version="1.0" encoding="UTF-8"?>
<svg version="1.1" xmlns="http://www.w3.org/2000/svg" width="635" height="567">
<path d="M0 0 C209.55 0 419.1 0 635 0 C635 187.11 635 374.22 635 567 C425.45 567 215.9 567 0 567 C0 379.89 0 192.78 0 0 Z " fill="#FEFEFE" transform="translate(0,0)"/>
<path d="M0 0 C1.35537369 0.00273422 1.35537369 0.00273422 2.73812866 0.00552368 C15.96179788 0.05043299 28.85767254 0.42102021 41.8125 3.3125 C42.6492627 3.49474121 43.48602539 3.67698242 44.34814453 3.86474609 C60.88710691 7.54793455 76.68302407 12.59639688 91.8125 20.3125 C92.57723633 20.70179687 93.34197266 21.09109375 94.12988281 21.4921875 C110.69999344 30.03252463 125.82224241 40.07230268 139.3359375 52.953125 C141.37702596 54.89763199 143.44653648 56.71500346 145.625 58.5 C149.44925771 61.7451033 152.59721657 65.47615578 155.8125 69.3125 C156.58722656 70.21097656 157.36195313 71.10945313 158.16015625 72.03515625 C184.67886572 103.14443057 204.00084127 143.1071565 206.8125 184.3125 C201.02660372 183.4803491 195.41228727 182.04788889 189.75 180.625 C188.68724854 180.35880859 187.62449707 180.09261719 186.52954102 179.81835938 C178.87819342 177.88174195 171.26500461 175.83572201 163.71240234 173.54174805 C159.03032122 172.13872869 154.41696771 171.01646509 149.6015625 170.1640625 C134.68608302 167.35247025 134.68608302 167.35247025 131.35546875 163.72607422 C129.15742705 159.88258838 128.28829557 155.72912832 127.36572266 151.43505859 C126.44878336 147.91702231 124.81191512 144.85659754 123.0625 141.6875 C122.72653809 141.07293945 122.39057617 140.45837891 122.04443359 139.82519531 C105.24296764 109.91212077 78.08258696 87.66022289 45.8125 76.3125 C45.15749512 76.08046875 44.50249023 75.8484375 43.82763672 75.609375 C29.7707283 70.71410339 16.20649955 68.96671865 1.3125 69.0625 C0.10980469 69.05476563 -1.09289062 69.04703125 -2.33203125 69.0390625 C-14.08373407 69.06430783 -25.47418167 70.5280334 -36.8125 73.625 C-37.62388428 73.84518799 -38.43526855 74.06537598 -39.27124023 74.29223633 C-57.62382267 79.41545997 -74.74648881 88.90561968 -89.1875 101.3125 C-89.76483887 101.80621094 -90.34217773 102.29992187 -90.93701172 102.80859375 C-112.82633691 121.7616181 -127.03771568 146.14384494 -133.67041016 174.2265625 C-134.14106964 176.1252002 -134.69699921 178.00218466 -135.26171875 179.875 C-137.57725129 188.47275796 -137.37061494 197.08845536 -137.375 205.9375 C-137.38724609 207.21496094 -137.39949219 208.49242187 -137.41210938 209.80859375 C-137.46877921 247.09734397 -121.3829668 280.51027973 -95.71875 306.875 C-90.6164185 311.94391011 -85.13647109 316.2694615 -79.1875 320.3125 C-78.24753174 320.95227783 -78.24753174 320.95227783 -77.28857422 321.60498047 C-46.41864766 342.31942441 -7.94537422 349.34015165 28.625 342.75 C38.47599325 340.7879539 47.68880004 337.46882778 56.8125 333.3125 C57.77905518 332.87284912 57.77905518 332.87284912 58.76513672 332.42431641 C87.77496952 318.99647918 112.55414402 295.70108196 125.8125 266.3125 C126.37867886 264.6976222 126.91857414 263.07332034 127.43359375 261.44140625 C131.25834065 249.33491637 131.25834065 249.33491637 135.62109375 246.46484375 C138.62351366 245.59134821 141.52211145 245.02230232 144.62255859 244.63427734 C148.89555749 244.00642756 153.06143475 242.8496757 157.25 241.8125 C159.07115976 241.38218513 160.89277014 240.95377256 162.71484375 240.52734375 C171.30734892 238.49465693 179.81581322 236.18451999 188.296875 233.73046875 C189.72676758 233.31752563 189.72676758 233.31752563 191.18554688 232.89624023 C193.07347297 232.34911977 194.96024032 231.7979816 196.84570312 231.24243164 C197.70615234 230.99227295 198.56660156 230.74211426 199.453125 230.484375 C200.22172852 230.2584668 200.99033203 230.03255859 201.78222656 229.79980469 C203.8125 229.3125 203.8125 229.3125 206.8125 229.3125 C199.16832656 278.91754228 178.80971563 329.41451911 138.48206997 361.84570789 C136.74806117 363.36911241 135.32876737 364.97065829 133.84547424 366.73820496 C128.86967516 372.48831307 123.46845318 377.81270515 118.09741211 383.1887207 C116.92367444 384.36709562 115.75013144 385.54566447 114.57676697 386.72441101 C111.40997051 389.90423535 108.23992571 393.08080081 105.06884074 396.25634789 C103.08549704 398.24263441 101.1027367 400.22950149 99.12014961 402.2165432 C92.90956948 408.44076508 86.6970148 414.66300592 80.4815473 420.8823474 C73.3185077 428.04987733 66.1620739 435.22391813 59.0112552 442.40364009 C53.47156534 447.96494036 47.92613002 453.52046841 42.37629324 459.07164258 C39.06604199 462.38294114 35.75825885 465.69661819 32.45643425 469.01632118 C29.35461348 472.13461421 26.24571916 475.24567648 23.13126564 478.35135078 C21.99107151 479.49077443 20.8534305 480.63275965 19.71857452 481.77750015 C18.16677526 483.34201861 16.60595677 484.89696076 15.04258728 486.4499054 C14.1722885 487.32167073 13.30198973 488.19343607 12.40531826 489.09161854 C8.06703713 492.80757823 3.6966794 495.12837769 -2.15581036 494.83120918 C-10.85692475 492.60973409 -19.92960891 479.73505528 -26.19995117 473.47705078 C-27.60841081 472.07486607 -29.01705642 470.67286815 -30.4258728 469.27104187 C-35.03096974 464.68686944 -39.6308387 460.0974691 -44.23046875 455.5078125 C-45.82251635 453.91981712 -47.41459633 452.33185419 -49.00670815 450.74392319 C-56.49133029 443.27832907 -63.97355335 435.81034071 -71.45284098 428.33940232 C-80.04777508 419.75422472 -88.65091045 411.17737777 -97.26117152 402.60757267 C-103.94119478 395.9578468 -110.61339272 389.3003324 -117.27993375 382.63709056 C-121.24978347 378.66957617 -125.22277668 374.70534384 -129.20412254 370.74936295 C-132.95675022 367.02025999 -136.69944806 363.28145464 -140.43523788 359.53548622 C-141.79534502 358.17488946 -143.15877669 356.81760507 -144.5260601 355.46422005 C-156.71266898 343.39442423 -167.8001869 330.3237044 -176.4375 315.4375 C-176.92508789 314.60782715 -177.41267578 313.7781543 -177.91503906 312.92333984 C-188.67820124 294.30454948 -196.97953129 274.35349073 -202.0625 253.4375 C-202.25360352 252.6552002 -202.44470703 251.87290039 -202.64160156 251.06689453 C-205.82452439 237.0383499 -206.5372531 223.10476736 -206.50317383 208.77758789 C-206.50001535 206.01343204 -206.52357358 203.25035276 -206.54882812 200.48632812 C-206.61517577 182.81544342 -203.98163509 166.45326236 -198.875 149.5625 C-198.67541687 148.89350677 -198.47583374 148.22451355 -198.27020264 147.5352478 C-188.53325997 114.91236609 -171.88514558 87.48460857 -148.56835938 62.77685547 C-147.2515722 61.38044644 -145.94580084 59.97367406 -144.640625 58.56640625 C-136.90241012 50.4881789 -128.24158324 43.84529865 -119.1875 37.3125 C-118.55295898 36.85456055 -117.91841797 36.39662109 -117.26464844 35.92480469 C-82.7265653 11.31251447 -42.16031142 -0.17672712 0 0 Z " fill="#C08C46" transform="translate(325.1875,22.6875)"/>
<path d="M0 0 C0.81162598 0.00016113 1.62325195 0.00032227 2.45947266 0.00048828 C12.70657941 0.18932924 22.52004509 2.52575656 32 6.375 C33.61628879 6.82427349 35.24267903 7.23800597 36.875 7.625 C43.01853508 9.11916841 49.13452268 10.70746102 55.25 12.3125 C63.42257288 14.45690688 71.6062988 16.53592614 79.8203125 18.515625 C83 19.375 83 19.375 85.29296875 20.33203125 C89.47623653 21.94376646 93.82220888 22.81885023 98.1875 23.8125 C105.21746532 25.41689093 112.11071252 27.24663229 119 29.375 C121.28992235 30.04763378 123.58141176 30.71497461 125.875 31.375 C126.94492187 31.684375 128.01484375 31.99375 129.1171875 32.3125 C133.23180254 33.46245792 137.37822979 34.48015131 141.52441406 35.50927734 C158.52151238 39.74303055 175.53000963 44.00557872 192.375 48.8125 C193.19863037 49.04686768 194.02226074 49.28123535 194.87084961 49.52270508 C206.66860866 52.94606597 206.66860866 52.94606597 210 58.375 C210.6875 61.3125 210.6875 61.3125 210 64.375 C205.77082245 69.28147309 201.19480156 71.41102839 195 72.75 C193.32399537 73.1527173 191.64823207 73.55643973 189.97265625 73.9609375 C189.03824707 74.17975586 188.10383789 74.39857422 187.14111328 74.62402344 C181.56814973 75.95640614 176.02541402 77.4082152 170.47897339 78.84625244 C168.42926475 79.37713295 166.37889996 79.90541036 164.32836914 80.43310547 C156.83511359 82.36383445 149.36098099 84.34543443 141.91357422 86.44580078 C134.81336325 88.44319748 127.68918922 90.34957191 120.5625 92.25 C119.92453491 92.42026703 119.28656982 92.59053406 118.62927246 92.76596069 C111.5544121 94.65273146 104.47443852 96.51688627 97.3828125 98.33984375 C96.17165771 98.65131348 94.96050293 98.9627832 93.71264648 99.28369141 C91.43170161 99.86850046 89.15000832 100.45040142 86.86743164 101.02880859 C81.51857098 102.39839001 76.28721227 103.90640403 71.06713867 105.70288086 C67.78026142 106.77159151 64.43544794 107.50852245 61.0625 108.25 C55.12020252 109.6030923 49.24000707 111.09426844 43.375 112.75 C42.64007324 112.95375244 41.90514648 113.15750488 41.14794922 113.36743164 C36.91366234 114.54302119 32.69752217 115.76493654 28.48828125 117.02734375 C8.4689955 122.86064309 -9.48323432 124.21334483 -28.625 114.75 C-37.65040465 109.53239381 -45.36629319 102.13854392 -51 93.375 C-51.65742188 92.40046875 -51.65742188 92.40046875 -52.328125 91.40625 C-60.20917572 78.68262594 -62.01782391 62.92998923 -59.33984375 48.38671875 C-55.15121289 30.63490225 -44.40813395 16.93059688 -29 7.375 C-19.67410317 2.31273832 -10.58648896 -0.02009669 0 0 Z " fill="#C08C47" transform="translate(325,168.625)"/>
<path d="M0 0 C1.97338867 -0.27563477 1.97338867 -0.27563477 5.91088867 0.41186523 C9.62751689 3.41725381 12.85083741 6.74356608 15.91088867 10.41186523 C15.91088867 10.74186523 15.91088867 11.07186523 15.91088867 11.41186523 C15.19360596 11.48179687 14.47632324 11.55172852 13.73730469 11.6237793 C-8.77739994 13.8493091 -31.25311002 16.28336487 -53.08911133 22.41186523 C-54.03786133 22.65678711 -54.98661133 22.90170898 -55.96411133 23.15405273 C-62.76125168 24.99839875 -70.0628363 27.37245269 -74.08911133 33.41186523 C-74.56144516 36.35464922 -74.56144516 36.35464922 -73.08911133 39.41186523 C-63.91780874 47.13406388 -51.00853724 49.73074901 -39.52661133 51.97436523 C-38.44637695 52.18561035 -37.36614258 52.39685547 -36.25317383 52.61450195 C-25.20804086 54.69263035 -14.14646492 56.04206315 -2.95727539 57.0559082 C-0.32636169 57.29801071 2.30006387 57.55211731 4.92749023 57.82641602 C53.0351217 62.79899363 103.85841822 63.23604089 151.91882324 57.64294434 C153.95412158 57.40685023 155.99041097 57.18152138 158.02709961 56.95776367 C193.81859833 54.26271315 193.81859833 54.26271315 224.91088867 38.41186523 C225.4118389 35.53880296 225.4118389 35.53880296 224.91088867 32.41186523 C221.09250922 28.68194245 216.77755532 26.81457999 211.91088867 24.84936523 C211.23155273 24.55868164 210.5522168 24.26799805 209.85229492 23.96850586 C198.47548547 19.30297024 186.18863102 17.6550016 174.09838867 15.84936523 C173.38820587 15.7416983 172.67802307 15.63403137 171.94631958 15.52310181 C158.97723937 13.56698138 146.00446946 12.22462276 132.91088867 11.41186523 C134.07862349 10.24413042 135.24863107 9.0785977 136.42871094 7.92333984 C137.93776051 6.42269803 137.93776051 6.42269803 139.31298828 4.74609375 C142.0503815 1.618242 143.21671909 0.50386361 147.47729492 -0.06079102 C148.81243623 0.04117441 150.14508847 0.18019715 151.47338867 0.34936523 C152.56889038 0.4520874 152.56889038 0.4520874 153.68652344 0.55688477 C156.1014977 0.79972568 158.50407809 1.09861133 160.91088867 1.41186523 C161.75232422 1.51740723 162.59375977 1.62294922 163.46069336 1.73168945 C168.77480336 2.41167985 174.07071308 3.18456257 179.36352539 4.01342773 C181.74377216 4.38572625 184.12579324 4.74352995 186.50854492 5.09936523 C243.87588006 13.91002652 243.87588006 13.91002652 261.47338867 33.22436523 C264.1266822 37.26198582 264.4913041 40.647261 263.91088867 45.41186523 C259.70395142 56.3116572 248.01257023 60.67786337 237.98852539 65.13476562 C222.51356331 71.72784163 206.41763701 75.1679371 189.88232422 77.89428711 C187.04947914 78.38772492 184.23170291 78.93985164 181.41140747 79.49986267 C172.52301716 81.24362945 163.63085055 82.37770447 154.62207031 83.29223633 C152.24134996 83.53503346 149.86232276 83.79107168 147.4831543 84.04858398 C125.74040391 86.34882563 104.01896664 86.60008047 82.17724609 86.59716797 C79.14430716 86.59708722 76.11152093 86.60396559 73.07861328 86.61767578 C-71.50477095 87.26024682 -71.50477095 87.26024682 -108.56176758 52.16186523 C-111.86177625 48.38078113 -113.02904751 45.06362032 -113.21411133 39.97436523 C-110.07572968 30.03615667 -100.86835846 25.01948365 -92.08911133 20.41186523 C-87.82777839 18.49477392 -83.5172147 16.89867367 -79.08911133 15.41186523 C-78.13262695 15.07670898 -77.17614258 14.74155273 -76.19067383 14.39624023 C-60.36258453 9.16175401 -43.74442724 6.41654323 -27.33911133 3.66186523 C-26.09073486 3.45118408 -24.8423584 3.24050293 -23.55615234 3.0234375 C-17.17579598 1.97852305 -10.8388495 1.11094447 -4.39111328 0.61865234 C-2.11358441 0.45462357 -2.11358441 0.45462357 0 0 Z " fill="#D56B36" transform="translate(251.089111328125,472.588134765625)"/>
<path d="M0 0 C1.27101563 0.350625 2.54203125 0.70125 3.8515625 1.0625 C17.94361431 5.33461676 31.01093059 12.15166444 42 22 C42.82757813 22.70898438 43.65515625 23.41796875 44.5078125 24.1484375 C55.65664781 33.86531231 65.81324108 44.89931368 71 59 C56.08603865 57.23273868 39.29723164 54.85925988 29.42578125 42.78125 C17.38573588 28.97688236 -4.9293951 21.34834991 -22.66601562 19.76147461 C-36.27172065 19.09565829 -48.19272225 20.40734124 -61 25 C-62.06089844 25.34933594 -63.12179687 25.69867188 -64.21484375 26.05859375 C-86.32518454 34.16077232 -102.22514091 51.96180292 -112.13671875 72.75390625 C-121.76717285 93.95267963 -122.8255159 117.21298653 -115.23632812 139.21386719 C-106.24015337 162.99871771 -89.58988193 180.92090014 -66.63671875 191.875 C-44.4038914 201.36100633 -19.10338925 201.21048524 3.39453125 192.71875 C13.53991475 188.30237991 23.56762298 182.71084863 31.28320312 174.69799805 C38.43588887 167.3227235 45.90869542 165.43999351 55.81640625 163.45556641 C58.77312756 162.83870125 61.66114582 162.02354811 64.5625 161.1875 C68.7679558 160 68.7679558 160 71 160 C67.00814074 170.8522405 59.9803672 179.80611127 52 188 C51.22914063 188.83273437 50.45828125 189.66546875 49.6640625 190.5234375 C37.00952772 203.83322327 21.53729464 211.97839374 4.3125 217.8125 C3.45785156 218.1027002 2.60320312 218.39290039 1.72265625 218.69189453 C-26.57288562 227.88686069 -56.5037363 223.76102268 -82.95361328 211.04394531 C-109.70228959 197.39835477 -129.76065169 172.3335352 -139 144 C-145.35530875 122.43362442 -146.77827316 99.64892149 -140 78 C-139.79101074 77.32324219 -139.58202148 76.64648438 -139.36669922 75.94921875 C-134.65345047 61.17750883 -127.24207002 47.65683066 -117 36 C-116.33742187 35.19433594 -115.67484375 34.38867188 -114.9921875 33.55859375 C-100.27675751 16.20959049 -80.07644537 5.09662071 -58.3125 -0.75 C-57.5285083 -0.96100342 -56.7445166 -1.17200684 -55.93676758 -1.3894043 C-37.53326636 -6.10195368 -18.1490181 -5.22747112 0 0 Z " fill="#D56C37" transform="translate(356,120)"/>
<path d="M0 0 C6.33708215 3.65048745 11.81608623 8.77978597 14.19140625 15.87890625 C16.49112827 25.12604024 16.27287219 32.44015277 11.5 40.8125 C7.47399754 47.22894142 1.62248128 50.41921515 -5.5 52.8125 C-13.60288905 53.96880417 -20.7070981 53.58409938 -27.5 48.8125 C-28.8303125 47.94625 -28.8303125 47.94625 -30.1875 47.0625 C-36.29862646 41.11653912 -39.50937776 33.99187136 -39.875 25.5 C-39.68057851 17.0598202 -36.27581497 10.69471925 -30.53125 4.609375 C-21.82331672 -3.09379675 -10.64279575 -4.98881051 0 0 Z " fill="#FEFDFC" transform="translate(337.5,204.1875)"/>
</svg>
